<svg width="202" height="56" viewBox="0 0 202 56" fill="none" xmlns="http://www.w3.org/2000/svg">
<path d="M6 55.44C2.56 55.44 0.84 53.8933 0.84 50.8C0.84 47.7067 0.84 41.9867 0.84 33.64H4.8C4.8 42.1733 4.8 47.44 4.8 49.44C4.8 51.4133 5.2 52.4 6 52.4C6.85333 52.4 7.28 51.4133 7.28 49.44C7.28 47.44 7.28 45.12 7.28 42.48C7.28 38.4 7.24 35.48 7.16 33.72C7.10667 31.96 6.41333 30.5467 5.08 29.48C2.81333 27.9067 1.54667 26.0933 1.28 24.04C1.04 21.96 0.92 18.7733 0.92 14.48C0.92 11.7333 0.92 8.76 0.92 5.56C0.92 2.33333 2.64 0.719995 6.08 0.719995C9.52 0.719995 11.24 2.36 11.24 5.64C11.24 8.92 11.24 14.4667 11.24 22.28H7.28C7.28 14.2 7.28 9.09333 7.28 6.96C7.28 4.82666 6.88 3.76 6.08 3.76C5.25333 3.76 4.84 4.82666 4.84 6.96C4.84 9.09333 4.84 11.3467 4.84 13.72C4.84 17.4267 4.88 20.1733 4.96 21.96C5.04 23.72 5.76 25.1333 7.12 26.2C9.36 27.8533 10.6133 29.68 10.88 31.68C11.1467 33.6533 11.28 36.9867 11.28 41.68C11.28 44.5867 11.28 47.6133 11.28 50.76C11.28 53.88 9.52 55.44 6 55.44ZM13.1419 55L15.1019 0.999999H21.5419L23.5419 55H19.5819L19.1819 38.68H17.5019L17.1019 55H13.1419ZM17.5019 35.6H19.1819L18.4219 4.04H18.3019L17.5019 35.6ZM29.8319 55.32C26.4185 55.32 24.7119 53.6267 24.7119 50.24C24.7119 46.8267 24.7119 39.3733 24.7119 27.88C24.7119 16.36 24.6985 8.96 24.6719 5.68C24.6452 2.37333 26.3519 0.719995 29.7919 0.719995C33.2585 0.719995 34.9919 2.37333 34.9919 5.68C34.9919 8.96 34.9919 14.88 34.9919 23.44H31.0719C31.0719 14.48 31.0719 8.96 31.0719 6.88C31.0719 4.8 30.6585 3.76 29.8319 3.76C28.9785 3.76 28.5652 4.8 28.5919 6.88C28.6185 8.96 28.6319 15.96 28.6319 27.88C28.6319 39.8267 28.6319 46.88 28.6319 49.04C28.6319 51.1733 29.0319 52.24 29.8319 52.24C30.6585 52.24 31.0719 51.16 31.0719 49C31.0719 46.8133 31.0719 41.3467 31.0719 32.6H34.9919C34.9919 40.9467 34.9919 46.8267 34.9919 50.24C34.9919 53.6267 33.2719 55.32 29.8319 55.32ZM37.21 55V0.999999H43.13C45.9033 0.999999 47.29 2.61333 47.29 5.84C47.29 9.06666 47.29 12.4 47.29 15.84C47.29 19.2533 47.29 22.5067 47.29 25.6C47.29 28.6667 45.9033 30.2 43.13 30.2H41.17V55H37.21ZM43.65 55L42.37 29.72L46.13 28.76L47.61 55H43.65ZM41.17 27.52H41.77C42.7833 27.52 43.29 26.3733 43.29 24.08C43.29 21.7867 43.29 19.04 43.29 15.84C43.29 12.6133 43.29 9.85333 43.29 7.56C43.29 5.24 42.7833 4.08 41.77 4.08H41.17V27.52ZM49.6738 55V0.999999H56.5138V4.08H53.6338V25.72H56.5138V28.72H53.6338V51.92H56.5138V55H49.6738ZM58.6163 55V0.999999H64.3763C67.1496 0.999999 68.5363 2.70667 68.5363 6.12C68.5363 9.53333 68.5363 16.84 68.5363 28.04C68.5363 39.2133 68.5363 46.5067 68.5363 49.92C68.5363 53.3067 67.1496 55 64.3763 55H58.6163ZM62.5363 51.92H63.1763C64.1363 51.92 64.6163 50.6933 64.6163 48.24C64.6163 45.76 64.6163 39.0267 64.6163 28.04C64.6163 17.0267 64.6163 10.28 64.6163 7.8C64.6163 5.32 64.1363 4.08 63.1763 4.08H62.5363V51.92ZM75.8819 55V0.999999H81.8019C84.4419 0.999999 85.7619 2.34667 85.7619 5.04C85.7619 7.70666 85.7619 10.2533 85.7619 12.68C85.7619 15.48 85.7619 18.1467 85.7619 20.68C85.7619 23.2133 84.9085 24.5467 83.2019 24.68C84.9085 24.84 85.7619 26.44 85.7619 29.48C85.7619 32.4933 85.7619 35.68 85.7619 39.04C85.7619 43.2 85.7619 46.9067 85.7619 50.16C85.7619 53.3867 84.3885 55 81.6419 55H75.8819ZM79.8419 51.92H80.4419C81.3752 51.92 81.8419 50.72 81.8419 48.32C81.8419 45.92 81.8419 42.7733 81.8419 38.88C81.8419 35.52 81.8419 32.5733 81.8419 30.04C81.8419 27.5067 81.3885 26.24 80.4819 26.24H79.8419V51.92ZM79.8419 23.2H80.4819C81.3885 23.2 81.8419 22.1733 81.8419 20.12C81.8419 18.0667 81.8419 15.6667 81.8419 12.92C81.8419 10.52 81.8419 8.44 81.8419 6.68C81.8419 4.92 81.3485 4.04 80.3619 4.04H79.8419V23.2ZM87.9913 55V0.999999H91.9513V51.96H95.5513V55H87.9913ZM96.8138 55L98.7738 0.999999H105.214L107.214 55H103.254L102.854 38.68H101.174L100.774 55H96.8138ZM101.174 35.6H102.854L102.094 4.04H101.974L101.174 35.6ZM113.504 55.32C110.09 55.32 108.384 53.6267 108.384 50.24C108.384 46.8267 108.384 39.3733 108.384 27.88C108.384 16.36 108.37 8.96 108.344 5.68C108.317 2.37333 110.024 0.719995 113.464 0.719995C116.93 0.719995 118.664 2.37333 118.664 5.68C118.664 8.96 118.664 14.88 118.664 23.44H114.744C114.744 14.48 114.744 8.96 114.744 6.88C114.744 4.8 114.33 3.76 113.504 3.76C112.65 3.76 112.237 4.8 112.264 6.88C112.29 8.96 112.304 15.96 112.304 27.88C112.304 39.8267 112.304 46.88 112.304 49.04C112.304 51.1733 112.704 52.24 113.504 52.24C114.33 52.24 114.744 51.16 114.744 49C114.744 46.8133 114.744 41.3467 114.744 32.6H118.664C118.664 40.9467 118.664 46.8267 118.664 50.24C118.664 53.6267 116.944 55.32 113.504 55.32ZM120.882 55V0.999999H124.802V26.8L128.042 0.999999H132.002L128.362 28.04L132.002 55H128.042L124.802 29.28V55H120.882ZM141.363 55V4.08H138.803V0.999999H147.963V4.08H145.323V55H141.363ZM148.064 55L150.024 0.999999H156.464L158.464 55H154.504L154.104 38.68H152.424L152.024 55H148.064ZM152.424 35.6H154.104L153.344 4.04H153.224L152.424 35.6ZM160.894 55V4.08H158.334V0.999999H167.494V4.08H164.854V55H160.894ZM171.285 55V4.08H168.725V0.999999H177.885V4.08H175.245V55H171.285ZM183.971 55.32C180.557 55.32 178.851 53.3733 178.851 49.48C178.851 45.56 178.851 38.4133 178.851 28.04C178.851 17.6933 178.851 10.56 178.851 6.64C178.851 2.69333 180.557 0.719995 183.971 0.719995C187.384 0.719995 189.091 2.69333 189.091 6.64C189.091 10.5867 189.091 17.72 189.091 28.04C189.091 38.4133 189.091 45.56 189.091 49.48C189.091 53.3733 187.384 55.32 183.971 55.32ZM183.971 52.24C184.797 52.24 185.211 50.88 185.211 48.16C185.211 45.44 185.211 38.7333 185.211 28.04C185.211 17.2933 185.211 10.56 185.211 7.84C185.211 5.12 184.797 3.76 183.971 3.76C183.171 3.76 182.771 5.12 182.771 7.84C182.771 10.56 182.771 17.2933 182.771 28.04C182.771 38.7333 182.771 45.44 182.771 48.16C182.771 50.88 183.171 52.24 183.971 52.24ZM196.236 55.32C192.823 55.32 191.116 53.3733 191.116 49.48C191.116 45.56 191.116 38.4133 191.116 28.04C191.116 17.6933 191.116 10.56 191.116 6.64C191.116 2.69333 192.823 0.719995 196.236 0.719995C199.65 0.719995 201.356 2.69333 201.356 6.64C201.356 10.5867 201.356 17.72 201.356 28.04C201.356 38.4133 201.356 45.56 201.356 49.48C201.356 53.3733 199.65 55.32 196.236 55.32ZM196.236 52.24C197.063 52.24 197.476 50.88 197.476 48.16C197.476 45.44 197.476 38.7333 197.476 28.04C197.476 17.2933 197.476 10.56 197.476 7.84C197.476 5.12 197.063 3.76 196.236 3.76C195.436 3.76 195.036 5.12 195.036 7.84C195.036 10.56 195.036 17.2933 195.036 28.04C195.036 38.7333 195.036 45.44 195.036 48.16C195.036 50.88 195.436 52.24 196.236 52.24Z" fill="#33B401"/>
</svg>
